<?xml version="1.0" encoding="UTF-8" standalone="no"?>
<svg width="125" height="125" viewBox="0 0 125 125" xmlns="http://www.w3.org/2000/svg">
  <defs>
    <filter id="filter382-8" x="-0.06" y="-0.36" width="1.13" height="1.86" color-interpolation-filters="sRGB">
      <feFlood result="flood" flood-opacity="0.5" flood-color="rgb(0,0,0)"/>
      <feGaussianBlur result="blur" in="SourceGraphic" stdDeviation="0.5"/>
      <feOffset result="offset" in="blur" dx="0.4" dy="0.5"/>
      <feComposite result="comp1" operator="in" in="flood" in2="offset"/>
      <feComposite result="comp2" operator="over" in="SourceGraphic" in2="comp1"/>
    </filter>
    <filter id="filter368-7" x="-0.08" y="-0.2" width="1.2" height="1.48" color-interpolation-filters="sRGB">
      <feFlood result="flood" flood-opacity="0.5" flood-color="rgb(0,0,0)"/>
      <feGaussianBlur result="blur" in="SourceGraphic" stdDeviation="0.243 0.5"/>
      <feOffset result="offset" in="blur" dx="0.4" dy="0.5"/>
      <feComposite result="comp1" operator="in" in="flood" in2="offset"/>
      <feComposite result="comp2" operator="over" in="SourceGraphic" in2="comp1"/>
    </filter>
    <filter id="filter388-3" x="-0.08" y="-0.29" width="1.23" height="1.67" color-interpolation-filters="sRGB">
      <feFlood result="flood" flood-opacity="0.5" flood-color="rgb(0,0,0)"/>
      <feGaussianBlur result="blur" in="SourceGraphic" stdDeviation="0.089 0.5"/>
      <feOffset result="offset" in="blur" dx="0.4" dy="0.5"/>
      <feComposite result="comp1" operator="in" in="flood" in2="offset"/>
      <feComposite result="comp2" operator="over" in="SourceGraphic" in2="comp1"/>
    </filter>
    <filter id="filter51" x="-0.02" y="-0.09" width="1.05" height="1.19">
      <feGaussianBlur in="SourceGraphic" result="blur" stdDeviation="0.5"/>
      <feComponentTransfer in="blur" result="component">
        <feFuncR type="gamma" amplitude="0.98" exponent="1.65" offset="0"/>
        <feFuncG type="gamma" amplitude="0.98" exponent="1.65" offset="0"/>
        <feFuncB type="gamma" amplitude="0.98" exponent="1.65" offset="0"/>
      </feComponentTransfer>
    </filter>
  </defs>
  <g>
    <path fill="#ffffff" stroke="#000" stroke-width="0.4" stroke-linecap="round" stroke-linejoin="round" filter="url(#filter51)" d="m 64.75,174.88 18,-33.65 17.75,33.52 z" transform="matrix(3.35,0,0,3.31,-213.87,-462.24)"/>
    <path fill="#000" stroke="#000" stroke-width="0.12" filter="url(#filter382-8)" d="m 93.52,163.7 c -3.57,-0.42 -4.32,3.6 -11.01,3.31 -4.59,0.17 -7.56,-3.55 -10.33,-3.3 3.66,-0.68 6.84,2.36 10.32,2.36 4.32,0.34 7.12,-3.36 11.02,-2.38 z" transform="matrix(3.35,0,0,3.31,-213.87,-462.24)"/>
    <path fill="#000" stroke="#000" stroke-width="0.1" filter="url(#filter368-7)" d="m 82.2,158.8 c -0.44,0.42 -1.03,0.74 -1.3,1.26 -0.3,0.57 -0.8,1.34 -0.07,2.73 1.27,2.16 5.06,1.05 4.13,-1.61 -1.15,0.34 -2.11,-0.48 -1.53,-1.52 0.45,-0.79 2.01,-0.76 2.69,1.02 0.02,0.07 1.06,3.74 -2.94,4.28 -3.57,0.41 -3.88,-2.6 -5.27,-3.48 0.74,0.14 2.69,-2.65 4.3,-2.69 z" transform="matrix(3.35,0,0,3.31,-213.87,-462.24)"/>
    <path fill="#000" stroke="#000" stroke-width="1.55" filter="url(#filter51)" d="m 65.81,173.63 21.17,-0.07 12.47,-0.04 -5.1,-8.23 c 1.01,5.04 0.77,5.85 0.14,6.46 -1.24,-0.32 -1.51,-3.75 -3.5,-4.75 -0.01,1.54 1.34,2.88 0.32,4.86 -1.9,-0.72 -2.73,-4.37 -4.26,-3.79 -0.85,1.37 0.42,3.17 0.02,4.01 -1.95,-0.3 -2.62,-2.24 -3.62,-3.46 l -1.44,2.36 c -0.71,2.55 -1.81,-2.04 -2.22,-2.65 -0.99,0.82 -1.91,2.62 -2.45,3.65 -1.49,-0.21 -1.21,-2.36 -2.04,-4.11 0.1,-0.24 -1.9,-2.05 -4.52,-2.39 -1.83,2.63 -3.12,5.52 -4.97,8.14 z" transform="matrix(3.13,0,0,3.31,-195.24,-462.68)"/>
    <path fill="#ffffff" stroke="#000" stroke-width="0.79" filter="url(#filter388-3)" d="m 82.62,156.23 c -3.33,-0.24 -5.75,3.3 -8.68,5.25 2.89,0.16 7.06,-4.56 8.82,-3.93 2.47,-0.67 6.41,3.88 8.77,4.2 -0.51,0.13 -4.59,-5.79 -8.91,-5.51 z" transform="matrix(3.35,0,0,3.31,-213.87,-462.24)"/>
    <path fill="#000" stroke="none" filter="url(#filter51)" d="m 483.91,688.3 123.37,207.62 c -0.57,2.26 -6.98,1.43 -11.66,-1.04 -8.63,-4.55 -21.05,-15.13 -22.04,-16.96 -1.43,-2.65 -7.23,-8.56 -8.99,-9.92 -1.76,-1.36 -14.85,-12.51 -15.82,-13.32 -5.15,-4.31 -8.52,-5.29 -10.05,-6.93 -2.52,-2.7 -9.92,-5.72 -11.05,-6.58 -3.9,-2.94 -7.91,-5.75 -14.43,-7.59 -7.21,-2.02 -9.94,-1.2 -18.57,-2.51 -9.33,-1.41 -10.79,-1.69 -18.47,-0.9 -11.77,1.22 -16.06,0.7 -27.35,6.44 -9.57,4.86 -9.62,6.76 -17.37,12.02 -7.37,5 -13.68,10.51 -18.72,14.05 -25.6,18 -22.69,17.45 -28.02,21 C 361.11,899.44 358.36,900.49 359.51,898.6 404.15,823.77 483.91,688.3 483.91,688.3 Z" transform="matrix(0.265,0,0,0.265,-64.59,-164.76)"/>
    <path fill="#ffffff" stroke-linecap="square" d="m 82.97,144.05 -0.81,0.01 0.13,10.64 0.81,-0.01 z m -3.71,4.93 -0.78,0.24 1.79,5.85 0.78,-0.24 z m 6.75,0.16 -1.93,5.71 0.77,0.26 1.93,-5.71 z m -9.37,4.04 -0.62,0.52 2.24,2.65 0.62,-0.52 z m 11.74,0.17 -1.93,2.55 0.65,0.49 1.93,-2.55 z m -13.82,3.2 -0.55,0.59 1.47,1.38 0.55,-0.59 z m 15.91,0.32 -1.33,1.25 0.55,0.59 1.33,-1.25 z" transform="matrix(3.54,0,0,3.67,-228.87,-513.4)"/>
  </g>
</svg>
